<svg aria-hidden="true" role="img" class="icon" xmlns="http://www.w3.org/2000/svg" width="16" height="16" viewBox="0 0 16 16"><path fill="#111" fill-rule="evenodd" d="M9.946 4.512h3.707v-1.1H9.946v1.1zm.878 2.4c-.236.248-.385.585-.446 1.01h2.884c-.03-.454-.18-.796-.446-1.032-.268-.235-.598-.352-.993-.352-.428 0-.763.124-.999.373 0 0 .236-.249 0 0zm2.503-1.477c.447.204.814.526 1.104.968.264.387.434.838.511 1.35.046.3.064.733.056 1.297h-4.661c.028.655.249 1.115.67 1.378.255.164.562.246.923.246.38 0 .69-.1.927-.3.131-.107.247-.257.345-.45h1.708c-.045.388-.252.782-.62 1.182-.572.635-1.375.953-2.406.953a3.43 3.43 0 01-2.253-.804c-.653-.536-.977-1.409-.977-2.615 0-1.133.293-2 .88-2.606.589-.603 1.35-.906 2.288-.906.557 0 1.058.103 1.505.307 0 0-.447-.204 0 0zM2.724 7.947v2.355h2.101c.376 0 .669-.051.877-.155.38-.193.569-.56.569-1.102 0-.461-.183-.777-.551-.95-.206-.094-.495-.146-.865-.148h-2.13zm0-3.412v1.95h2.104c.375 0 .68-.074.916-.22.234-.146.351-.405.351-.775 0-.414-.154-.684-.464-.817-.268-.092-.61-.138-1.023-.138H2.724zm4.699-.593c.264.376.397.825.397 1.349 0 .538-.133.973-.4 1.3-.15.184-.37.352-.66.503.44.165.773.426 1 .781.224.354.336.787.336 1.295 0 .523-.128.993-.386 1.408a2.397 2.397 0 01-.612.696 2.36 2.36 0 01-.977.444c-.376.08-.783.118-1.223.118H1V3h4.18c1.056.016 1.803.33 2.243.942z"/></svg>