<svg height="16" viewBox="0 0 16 16" width="16" xmlns="http://www.w3.org/2000/svg"><path d="m10.492 11.36h-5a.85.85 0 0 1 -.849-.843c0-.462.38-.84.85-.84h4.999c.466 0 .846.378.846.84a.85.85 0 0 1 -.846.844zm-5-6.746h2.46c.47 0 .85.38.85.843 0 .462-.38.846-.85.846h-2.46a.85.85 0 0 1 -.849-.846c0-.464.38-.843.85-.843zm9.465 2.198-.116-.242-.197-.154c-.259-.202-1.563.013-1.918-.304-.248-.23-.284-.641-.36-1.197-.14-1.082-.23-1.137-.399-1.503-.616-1.3-2.28-2.278-3.427-2.412h-3.104c-2.44 0-4.436 1.992-4.436 4.425v5.16c0 2.427 1.996 4.415 4.436 4.415h5.1c2.44 0 4.421-1.988 4.436-4.415l.028-3.575z" fill="#111" fill-rule="evenodd"/></svg>