<svg aria-hidden="true" role="img" class="icon" xmlns="http://www.w3.org/2000/svg" width="16" height="16" viewBox="0 0 16 16"><path fill="#111" fill-rule="evenodd" d="M10.492 11.36h-5a.85.85 0 01-.849-.843c0-.462.38-.84.85-.84h4.999c.466 0 .846.378.846.84a.85.85 0 01-.846.844zm-5-6.746h2.46c.47 0 .85.38.85.843 0 .462-.38.846-.85.846h-2.46a.85.85 0 01-.849-.846c0-.464.38-.843.85-.843 0 0-.47 0 0 0zm9.465 2.198l-.116-.242-.197-.154c-.259-.202-1.563.013-1.918-.304-.248-.23-.284-.641-.36-1.197-.14-1.082-.23-1.137-.399-1.503-.616-1.3-2.28-2.278-3.427-2.412H5.436C2.996 1 1 2.992 1 5.425v5.16C1 13.012 2.996 15 5.436 15h5.1c2.44 0 4.421-1.988 4.436-4.415L15 7.01l-.043-.198z"/></svg>