<svg aria-hidden="true" role="img" class="icon" xmlns="http://www.w3.org/2000/svg" width="16" height="16" viewBox="0 0 16 16"><path fill="#111" fill-rule="evenodd" d="M11.34 12.957a25.85 25.85 0 00-1.163-4.269c1.93-.309 3.602.22 3.726.262a5.979 5.979 0 01-2.562 4.007s1.342-.905 0 0zM8 13.977a5.96 5.96 0 01-3.808-1.37c.079.064.134.105.134.105s1.146-2.5 4.691-3.734a.377.377 0 01.04-.012 24.864 24.864 0 011.277 4.538A5.945 5.945 0 018 13.978zM2.022 8c0-.064.003-.127.005-.19.106.003 3.06.07 6.137-.851.171.335.335.676.485 1.015a7.76 7.76 0 00-.235.072C5.188 9.09 3.55 11.991 3.55 11.991l.003.004A5.953 5.953 0 012.022 8s0 1.536 0 0zm3.427-5.407C5.53 2.7 6.635 4.2 7.67 6.038c-2.87.763-5.362.733-5.519.73a5.984 5.984 0 013.3-4.175s-1.668.788 0 0zm1.12-.397l-.002.001-.018.005.02-.006s-.008.002 0 0zm5.38 1.318c-.015.023-.867 1.32-3.124 2.164C7.804 3.8 6.681 2.31 6.591 2.19a5.955 5.955 0 015.357 1.323s-1.052-.927 0 0zm2.028 4.426c-.087-.019-2.11-.454-4.164-.196-.043-.102-.085-.205-.13-.308a18.334 18.334 0 00-.397-.867c2.361-.964 3.32-2.35 3.33-2.367a5.96 5.96 0 011.36 3.738s-.013-1.418 0 0zm.881-1.349A7.004 7.004 0 004.085 2.197a7.044 7.044 0 00-1.889 1.89A6.922 6.922 0 001.142 6.59a7.064 7.064 0 000 2.82 6.946 6.946 0 001.054 2.504 7.04 7.04 0 003.079 2.534 7.015 7.015 0 007.675-1.5A6.988 6.988 0 0015 8c0-.474-.048-.95-.142-1.409z"/></svg>