<svg viewBox="0 0 50 50" xmlns="http://www.w3.org/2000/svg"><path d="m20 2c-2.758 0-5 2.242-5 5v5c0 .55-.45 1-1 1h-5c-2.16 0-3.938 1.742-3.96 3.887-.048 4.402.433 8.644 1.272 11.343.965 3.075 2.887 5.067 5.407 5.61l7.07 1.61a3.977 3.977 0 0 0 3.106-.618c.914-.629 1.515-1.578 1.695-2.766l.16-2.336c1.148 1.438 3.05 2.27 5.25 2.27h3c2.207 0 4 1.793 4 4v3c0 1.652-1.348 3-3 3h-2.895c-.535 0-1.02-.36-1.09-.824a.993.993 0 0 1 .22-.82c.19-.227.472-.356.765-.356h2a1 1 0 0 0 1-1v-4a1 1 0 0 0 -1-1h-3c-3.309 0-6 2.691-6 6v2c0 3.309 2.691 6 6 6h5c10 0 10-14.184 10-21 0-6.906-.164-11.426-1.031-15.531-.688-3.242-2.645-5.149-5.867-5.664-.262-.028-5.965-.606-9.262-.774-.555-1.656-2.45-3.031-4.434-3.031zm-6.547 2.547-7.062 7.062a5.92 5.92 0 0 1 2.609-.609h4v-4c0-.863.164-1.688.453-2.453zm21.047 15.453a2.5 2.5 0 0 1 2.5 2.5c0 .594-.215 1.129-.559 1.559-.757-.63-2.23-1.059-3.941-1.059-.152 0-.297.012-.441.02a2.278 2.278 0 0 1 -.059-.52c0-1.383 1.117-2.5 2.5-2.5z"/></svg>