<svg aria-hidden="true" role="img" class="icon" xmlns="http://www.w3.org/2000/svg" width="16" height="16" viewBox="0 0 16 16"><path fill="#111" fill-rule="evenodd" d="M8 1a7 7 0 00-2.213 13.642c.35.065.463-.152.463-.336v-1.303c-1.947.423-2.353-.826-2.353-.826-.318-.81-.777-1.025-.777-1.025-.635-.434.048-.425.048-.425.703.05 1.073.722 1.073.722.624 1.07 1.637.76 2.037.581.062-.452.244-.761.445-.935-1.555-.178-3.19-.779-3.19-3.46 0-.765.274-1.39.721-1.88-.072-.176-.312-.888.069-1.852 0 0 .588-.188 1.925.718A6.713 6.713 0 018 4.385c.595.003 1.194.08 1.754.236 1.336-.906 1.923-.718 1.923-.718.38.964.14 1.677.069 1.853.449.49.72 1.115.72 1.879 0 2.688-1.637 3.28-3.196 3.454.25.217.48.643.48 1.296v1.92c0 .187.112.406.467.337A7.002 7.002 0 008 1z"/></svg>