<svg aria-hidden="true" role="img" class="icon" xmlns="http://www.w3.org/2000/svg" width="16" height="16" viewBox="0 0 16 16"><path fill="#111" fill-rule="evenodd" d="M15 14.176h-3.094V9.544c0-1.213-.484-2.04-1.549-2.04-.814 0-1.266.558-1.477 1.097-.08.193-.067.46-.067.732v4.843H5.748s.04-8.206 0-8.95h3.065V6.63c.181-.615 1.16-1.491 2.724-1.491 1.94 0 3.463 1.287 3.463 4.06v4.977zM2.648 4.104h-.02C1.64 4.104 1 3.421 1 2.554 1 1.67 1.66 1 2.667 1c1.007 0 1.626.668 1.645 1.552 0 .866-.638 1.552-1.664 1.552zM1.353 5.225h2.729v8.951H1.353v-8.95z"/></svg>