<svg height="16" viewBox="0 0 16 16" width="16" xmlns="http://www.w3.org/2000/svg"><path d="m15 14.176h-3.094v-4.632c0-1.213-.484-2.04-1.549-2.04-.814 0-1.266.558-1.477 1.097-.08.193-.067.46-.067.732v4.843h-3.065s.04-8.206 0-8.95h3.065v1.404c.181-.615 1.16-1.491 2.724-1.491 1.94 0 3.463 1.287 3.463 4.06zm-12.352-10.072h-.02c-.988 0-1.628-.683-1.628-1.55 0-.884.66-1.554 1.667-1.554s1.626.668 1.645 1.552c0 .866-.638 1.552-1.664 1.552zm-1.295 1.121h2.729v8.951h-2.729v-8.95z" fill="#111" fill-rule="evenodd"/></svg>