<svg aria-hidden="true" role="img" class="icon" xmlns="http://www.w3.org/2000/svg" width="16" height="16" viewBox="0 0 16 16"><path fill="#111" fill-rule="evenodd" d="M2.66 4.267a.542.542 0 00-.177-.457L1.177 2.235V2h4.059l3.137 6.88L11.13 2H15v.235l-1.118 1.072a.327.327 0 00-.124.313v7.874c-.02.12.028.24.124.314l1.092 1.071v.235h-5.49v-.235l1.13-1.098c.111-.11.111-.143.111-.313V5.104l-3.143 7.985h-.425l-3.66-7.985v5.351a.738.738 0 00.202.614l1.47 1.784v.236H1v-.236l1.47-1.784a.71.71 0 00.19-.614V4.267z"/></svg>