<svg aria-hidden="true" role="img" class="icon" xmlns="http://www.w3.org/2000/svg" width="16" height="16" viewBox="0 0 16 16"><path fill="#111" fill-rule="evenodd" d="M8 1a7 7 0 00-2.81 13.412c-.019-.489-.002-1.076.122-1.609.135-.567.9-3.813.9-3.813s-.223-.448-.223-1.108c0-1.038.602-1.812 1.35-1.812.637 0 .945.478.945 1.051 0 .64-.409 1.598-.619 2.484-.175.742.372 1.347 1.105 1.347 1.326 0 2.22-1.702 2.22-3.72 0-1.534-1.034-2.683-2.913-2.683-2.123 0-3.446 1.584-3.446 3.351 0 .611.18 1.042.461 1.374.13.154.147.215.1.391-.032.128-.11.439-.142.561-.047.177-.19.241-.35.175-.979-.4-1.434-1.47-1.434-2.674 0-1.989 1.677-4.373 5.003-4.373 2.673 0 4.432 1.935 4.432 4.01 0 2.746-1.526 4.797-3.778 4.797-.755 0-1.466-.408-1.71-.871 0 0-.406 1.612-.492 1.923-.148.54-.439 1.08-.704 1.5A7 7 0 108 1"/></svg>