<svg height="50" viewBox="0 0 50 50" width="50" xmlns="http://www.w3.org/2000/svg"><path d="m25 45c-12.15625 0-22-9.75-22-21.792969v-13.882812c0-1.832031 1.503906-3.324219 3.359375-3.324219h37.28125c1.855469 0 3.359375 1.492188 3.359375 3.324219v13.882812c0 12.042969-9.84375 21.792969-22 21.792969zm0-11c-.695312 0-1.382812-.1875-2.085937-.804687l-10.914063-11.195313c-1.15625-1.148437-1.242187-3.152344-.085937-4.183594 1.160156-1.148437 3.011718-1.148437 4.054687 0l9.03125 8.832032 8.914063-8.832032c1.160156-1.148437 3.011718-1.148437 4.054687 0 1.15625 1.144532 1.1875 3.152344.03125 4.183594l-11.03125 11.195313c-.550781.640625-1.273437.804687-1.96875.804687z" fill-rule="evenodd"/></svg>