<svg fill="#000000" xmlns="http://www.w3.org/2000/svg" viewBox="0 0 50 50" width="50px" height="50px"><path fill-rule="evenodd" d="M 25 45 C 12.84375 45 3 35.25 3 23.207031 L 3 9.324219 C 3 7.492188 4.503906 6 6.359375 6 L 43.640625 6 C 45.496094 6 47 7.492188 47 9.324219 L 47 23.207031 C 47 35.25 37.15625 45 25 45 Z M 25 34 C 24.304688 34 23.617188 33.8125 22.914063 33.195313 L 12 22 C 10.84375 20.851563 10.757813 18.847656 11.914063 17.816406 C 13.074219 16.667969 14.925781 16.667969 15.96875 17.816406 L 25 26.648438 L 33.914063 17.816406 C 35.074219 16.667969 36.925781 16.667969 37.96875 17.816406 C 39.125 18.960938 39.15625 20.96875 38 22 L 26.96875 33.195313 C 26.417969 33.835938 25.695313 34 25 34 Z"/></svg>