<svg height="16" viewBox="0 0 16 16" width="16" xmlns="http://www.w3.org/2000/svg"><path d="m15 6.704a1.548 1.548 0 0 0 -2.623-1.107c-1.057-.695-2.485-1.137-4.067-1.194l.865-2.723 2.343.548-.003.034c0 .696.568 1.262 1.268 1.262.699 0 1.267-.566 1.267-1.262a1.266 1.266 0 0 0 -2.446-.458l-2.525-.592a.216.216 0 0 0 -.257.146l-.965 3.037c-1.655.02-3.155.466-4.258 1.181a1.542 1.542 0 0 0 -1.05-.415c-.854-.001-1.549.692-1.549 1.543 0 .566.31 1.057.768 1.325-.03.165-.05.33-.05.5 0 2.281 2.805 4.138 6.253 4.138s6.253-1.857 6.253-4.138c0-.16-.017-.317-.044-.472.486-.261.82-.766.82-1.353zm-10.047 1.06a.922.922 0 0 1 1.845 0 .922.922 0 0 1 -1.845 0zm5.285 2.723c-.465.463-1.194.688-2.23.688l-.008-.002-.008.002c-1.036 0-1.766-.225-2.23-.688a.215.215 0 0 1 0-.305.217.217 0 0 1 .307 0c.379.378 1.008.56 1.923.56l.008.003.008-.002c.915 0 1.544-.184 1.923-.561a.218.218 0 0 1 .307 0 .216.216 0 0 1 0 .305zm-.11-1.805a.921.921 0 0 1 -.922-.918.922.922 0 0 1 1.844 0 .921.921 0 0 1 -.922.918z" fill="#111" fill-rule="evenodd"/></svg>