<svg aria-hidden="true" role="img" class="icon" xmlns="http://www.w3.org/2000/svg" width="16" height="16" viewBox="0 0 16 16"><path fill="#111" fill-rule="evenodd" d="M15 6.704a1.548 1.548 0 00-2.623-1.107C11.32 4.902 9.892 4.46 8.31 4.403l.865-2.723 2.343.548-.003.034c0 .696.568 1.262 1.268 1.262.699 0 1.267-.566 1.267-1.262a1.266 1.266 0 00-2.446-.458l-2.525-.592a.216.216 0 00-.257.146l-.965 3.037c-1.655.02-3.155.466-4.258 1.181a1.542 1.542 0 00-1.05-.415C1.695 5.16 1 5.853 1 6.704c0 .566.31 1.057.768 1.325-.03.165-.05.33-.05.5 0 2.281 2.805 4.138 6.253 4.138s6.253-1.857 6.253-4.138c0-.16-.017-.317-.044-.472.486-.261.82-.766.82-1.353zM4.953 7.764a.922.922 0 011.845 0 .922.922 0 01-1.845 0zm5.285 2.723c-.465.463-1.194.688-2.23.688L8 11.173l-.008.002c-1.036 0-1.766-.225-2.23-.688a.215.215 0 010-.305.217.217 0 01.307 0c.379.378 1.008.56 1.923.56l.008.003.008-.002c.915 0 1.544-.184 1.923-.561a.218.218 0 01.307 0 .216.216 0 010 .305zm-.11-1.805a.921.921 0 01-.922-.918.922.922 0 011.844 0 .921.921 0 01-.922.918z"/></svg>