<svg height="16" viewBox="0 0 16 16" width="16" xmlns="http://www.w3.org/2000/svg"><path d="m1.006 1v2.672c6.238.004 11.309 5.083 11.314 11.328h2.68a13.963 13.963 0 0 0 -4.106-9.892 13.948 13.948 0 0 0 -9.888-4.108s3.858.002 0 0zm-.004 4.761v2.672a6.52 6.52 0 0 1 4.63 1.924 6.533 6.533 0 0 1 1.921 4.638v.005h2.686a9.217 9.217 0 0 0 -2.711-6.527 9.202 9.202 0 0 0 -6.526-2.713s2.546 0 0 0zm.543 8.68v-.001zm2.627-2.62v.001zm0 .001a1.84 1.84 0 0 1 .002 2.618h-.002a1.85 1.85 0 0 1 -1.313.544c-.515 0-.976-.208-1.314-.544a1.84 1.84 0 0 1 0-2.618 1.852 1.852 0 0 1 2.627 0z" fill="#111" fill-rule="evenodd"/></svg>