<svg aria-hidden="true" role="img" class="icon" xmlns="http://www.w3.org/2000/svg" width="16" height="16" viewBox="0 0 16 16"><path fill="#111" fill-rule="evenodd" d="M1.006 1v2.672C7.244 3.676 12.315 8.755 12.32 15H15a13.963 13.963 0 00-4.106-9.892A13.948 13.948 0 001.006 1s3.858.002 0 0zm-.004 4.761v2.672a6.52 6.52 0 014.63 1.924 6.533 6.533 0 011.921 4.638V15h2.686a9.217 9.217 0 00-2.711-6.527A9.202 9.202 0 001.002 5.76s2.546 0 0 0zm.543 8.68v-.001zm2.627-2.62v.001zm0 .001a1.84 1.84 0 01.002 2.618h-.002a1.85 1.85 0 01-1.313.544c-.515 0-.976-.208-1.314-.544a1.84 1.84 0 010-2.618 1.852 1.852 0 012.627 0z"/></svg>