<svg aria-hidden="true" role="img" class="icon" xmlns="http://www.w3.org/2000/svg" width="16" height="16" viewBox="0 0 16 16"><path fill="#111" fill-rule="evenodd" d="M4.4 3.236c-.35.784-.212 2.189-.156 3.17-.378.21-.863-.157-1.138-.157-.286 0-.627.188-.68.468-.039.201.051.495.7.751.25.1.848.216.986.542.194.457-.998 2.568-2.869 2.876A.29.29 0 001 11.19c.033.569 1.308.792 1.874.879.057.078.104.408.178.66a.325.325 0 00.34.247c.287 0 .765-.222 1.597-.084.815.136 1.582 1.292 3.053 1.292 1.368 0 2.184-1.161 2.97-1.292a3.433 3.433 0 011.28.034c.3.059.57.092.656-.204.075-.255.121-.578.178-.655.56-.087 1.841-.309 1.873-.878a.29.29 0 00-.243-.302c-1.84-.304-3.067-2.408-2.868-2.877.137-.325.73-.44.985-.541.475-.187.713-.418.708-.684-.006-.342-.417-.545-.72-.545-.307 0-.748.364-1.106.167.056-.99.194-2.389-.156-3.172C10.937 1.75 9.464 1 7.992 1 6.53 1 5.067 1.74 4.4 3.236z"/></svg>