<svg height="16" viewBox="0 0 16 16" width="16" xmlns="http://www.w3.org/2000/svg"><path d="m4.4 3.236c-.35.784-.212 2.189-.156 3.17-.378.21-.863-.157-1.138-.157-.286 0-.627.188-.68.468-.039.201.051.495.7.751.25.1.848.216.986.542.194.457-.998 2.568-2.869 2.876a.29.29 0 0 0 -.243.304c.033.569 1.308.792 1.874.879.057.078.104.408.178.66a.325.325 0 0 0 .34.247c.287 0 .765-.222 1.597-.084.815.136 1.582 1.292 3.053 1.292 1.368 0 2.184-1.161 2.97-1.292a3.433 3.433 0 0 1 1.28.034c.3.059.57.092.656-.204.075-.255.121-.578.178-.655.56-.087 1.841-.309 1.873-.878a.29.29 0 0 0 -.243-.302c-1.84-.304-3.067-2.408-2.868-2.877.137-.325.73-.44.985-.541.475-.187.713-.418.708-.684-.006-.342-.417-.545-.72-.545-.307 0-.748.364-1.106.167.056-.99.194-2.389-.156-3.172-.662-1.485-2.135-2.235-3.607-2.235-1.462 0-2.925.74-3.592 2.236z" fill="#111" fill-rule="evenodd"/></svg>