<svg height="16" viewBox="0 0 16 16" width="16" xmlns="http://www.w3.org/2000/svg"><path d="m8.505 10.762 4.774.003c.95 0 1.721-.73 1.721-1.633 0-.902-.77-1.632-1.721-1.632-.237 0-.461.044-.667.126-.137-1.472-1.438-2.626-3.025-2.626-.389 0-.768.072-1.103.195-.129.048-.163.097-.165.192v5.183c.002.1.083.183.186.192 0 0-.103-.009 0 0zm-.538-5.38a.187.187 0 0 0 -.19.18l-.077 3.678.077 1.335a.187.187 0 0 0 .19.179.188.188 0 0 0 .19-.18v.002l.083-1.336-.084-3.679a.187.187 0 0 0 -.19-.179zm-.588 5.38a.175.175 0 0 0 .178-.168l.075-1.354-.075-3.373a.176.176 0 0 0 -.178-.168.176.176 0 0 0 -.178.168l-.067 3.373.067 1.356a.175.175 0 0 0 .178.167s-.096 0 0 0zm-.342-1.522-.083-2.836a.162.162 0 0 0 -.165-.155.163.163 0 0 0 -.167.156l-.074 2.835.075 1.364a.16.16 0 0 0 .166.154c.09 0 .163-.067.165-.156v.002zm-.834 1.517c.084 0 .15-.065.153-.145l.091-1.372-.091-2.942a.15.15 0 0 0 -.153-.145.15.15 0 0 0 -.154.145l-.082 2.942.082 1.372a.15.15 0 0 0 .154.145s-.085 0 0 0zm-.582 0a.14.14 0 0 0 .142-.132l.099-1.385-.099-3.02a.14.14 0 0 0 -.142-.133.139.139 0 0 0 -.142.134l-.088 3.018.088 1.387a.14.14 0 0 0 .142.132s-.077 0 0 0zm-.577-4.56a.129.129 0 0 0 -.13.122l-.096 2.92.095 1.395c.003.067.06.121.13.121a.13.13 0 0 0 .13-.122l.108-1.394-.107-2.92a.13.13 0 0 0 -.13-.123zm-.573 4.56a.117.117 0 0 0 .118-.11v.001l.116-1.41-.116-2.695a.118.118 0 0 0 -.118-.11.118.118 0 0 0 -.118.11l-.103 2.696.102 1.409c.003.061.055.11.118.11zm-.338-1.517-.123-2.195a.105.105 0 0 0 -.106-.1.104.104 0 0 0 -.106.1l-.11 2.194.11 1.418a.106.106 0 0 0 .212 0l.124-1.418zm-.793 1.505c.05 0 .09-.039.093-.088l.133-1.418-.133-1.349a.094.094 0 0 0 -.093-.088.093.093 0 0 0 -.094.09l-.117 1.347.117 1.418c.002.05.043.088.094.088zm-.56-.024a.082.082 0 0 0 .083-.076l.14-1.406-.14-1.453a.083.083 0 0 0 -.082-.077.082.082 0 0 0 -.083.077l-.123 1.453.123 1.406a.081.081 0 0 0 .083.076s-.044 0 0 0zm-.483-2.897a.073.073 0 0 0 -.071-.066.07.07 0 0 0 -.07.066l-.131 1.415.13 1.363a.07.07 0 0 0 .07.065.07.07 0 0 0 .07-.065l.15-1.363zm-1.139 2.19c.029 0 .052-.02.056-.05l.122-.726-.122-.737c-.004-.03-.027-.052-.056-.052s-.052.022-.056.053l-.102.735.102.725c.004.03.027.052.056.052zm.518.444c.03 0 .053-.022.058-.054l.157-1.166-.157-1.192c-.005-.032-.029-.053-.058-.053a.06.06 0 0 0 -.059.053l-.137 1.191.137 1.166a.06.06 0 0 0 .059.054z" fill="#111" fill-rule="evenodd"/></svg>