<svg height="16" viewBox="0 0 16 16" width="16" xmlns="http://www.w3.org/2000/svg"><path d="m8.62 1v3.538h3.171v2.198h-3.17v3.59c0 .812.04 1.333.123 1.563.08.231.233.415.458.553.294.185.632.277 1.014.277.677 0 1.349-.23 2.02-.691v2.21c-.573.28-1.09.478-1.552.59a6.212 6.212 0 0 1 -1.502.172c-.611 0-1.152-.08-1.62-.242a3.451 3.451 0 0 1 -1.202-.691c-.332-.3-.563-.618-.69-.956-.128-.337-.192-.825-.192-1.465v-4.91h-1.478v-1.981c.527-.18.976-.436 1.35-.769s.675-.733.902-1.202c.226-.467.382-1.062.467-1.784z" fill="#111" fill-rule="evenodd"/></svg>