<svg aria-hidden="true" role="img" class="icon" xmlns="http://www.w3.org/2000/svg" width="16" height="16" viewBox="0 0 16 16"><path fill="#111" fill-rule="evenodd" d="M16 2.56a6.473 6.473 0 01-1.885.524 3.328 3.328 0 001.444-1.84 6.51 6.51 0 01-2.086.806A3.258 3.258 0 0011.077 1C9.265 1 7.796 2.49 7.796 4.326c0 .261.028.514.084.758-2.728-.14-5.146-1.462-6.766-3.477A3.36 3.36 0 00.67 3.282c0 1.152.579 2.171 1.46 2.768a3.24 3.24 0 01-1.488-.415v.04c0 1.613 1.132 2.957 2.635 3.262a3.226 3.226 0 01-1.483.058c.418 1.321 1.63 2.283 3.066 2.31A6.535 6.535 0 010 12.683a9.212 9.212 0 005.032 1.493c6.038 0 9.34-5.067 9.34-9.464 0-.144-.003-.288-.009-.43A6.679 6.679 0 0016 2.56"/></svg>