<svg height="16" viewBox="0 0 16 16" width="16" xmlns="http://www.w3.org/2000/svg"><path d="m16 2.56a6.473 6.473 0 0 1 -1.885.524 3.328 3.328 0 0 0 1.444-1.84 6.51 6.51 0 0 1 -2.086.806 3.258 3.258 0 0 0 -2.396-1.05c-1.812 0-3.281 1.49-3.281 3.326 0 .261.028.514.084.758-2.728-.14-5.146-1.462-6.766-3.477a3.36 3.36 0 0 0 -.444 1.675c0 1.152.579 2.171 1.46 2.768a3.24 3.24 0 0 1 -1.488-.415v.04c0 1.613 1.132 2.957 2.635 3.262a3.226 3.226 0 0 1 -1.483.058c.418 1.321 1.63 2.283 3.066 2.31a6.535 6.535 0 0 1 -4.86 1.378 9.212 9.212 0 0 0 5.032 1.493c6.038 0 9.34-5.067 9.34-9.464 0-.144-.003-.288-.009-.43a6.679 6.679 0 0 0 1.637-1.722" fill="#111" fill-rule="evenodd"/></svg>