<svg aria-hidden="true" role="img" class="icon" xmlns="http://www.w3.org/2000/svg" width="16" height="16" viewBox="0 0 16 16"><path fill="#111" fill-rule="evenodd" d="M14.993 4.856c-.061 1.392-1.014 3.296-2.853 5.71-1.903 2.525-3.516 3.787-4.834 3.787-.815 0-1.505-.768-2.07-2.308-.377-1.413-.752-2.826-1.13-4.236-.42-1.541-.869-2.31-1.35-2.31-.104 0-.469.224-1.097.673L1 5.306c.69-.619 1.37-1.24 2.04-1.86.92-.813 1.61-1.24 2.07-1.283 1.087-.108 1.758.65 2.01 2.277.27 1.754.459 2.845.563 3.272.315 1.455.659 2.18 1.036 2.18.292 0 .732-.469 1.318-1.41.586-.941.898-1.657.94-2.15.085-.813-.23-1.217-.94-1.217-.335 0-.681.072-1.036.224.692-2.289 2.009-3.401 3.955-3.336 1.441.042 2.122.994 2.037 2.853"/></svg>