<svg aria-hidden="true" role="img" class="icon" xmlns="http://www.w3.org/2000/svg" width="16" height="16" viewBox="0 0 16 16"><path fill="#111" fill-rule="evenodd" d="M8.226 12.746c.381 0 .537-.253.532-.571-.019-1.199.447-1.844 1.287-1.003.93.93 1.123 1.574 2.252 1.574h2c.505 0 .704-.162.704-.417 0-.54-.888-1.491-1.64-2.19-1.054-.978-1.104-1.001-.196-2.179 1.125-1.462 2.598-3.335 1.295-3.335h-2.488c-.482 0-.517.272-.69.677-.621 1.467-1.803 3.367-2.252 3.076-.47-.303-.254-1.504-.219-3.288.01-.471.007-.794-.713-.962A5.044 5.044 0 006.968 4c-1.421 0-2.401.596-1.844.7.982.183.887 2.307.659 3.224-.4 1.598-1.898-1.265-2.522-2.69-.15-.343-.197-.609-.735-.609H.492c-.308 0-.492.1-.492.323 0 .376 1.85 4.2 3.616 6.106 1.723 1.86 3.425 1.692 4.61 1.692z"/></svg>