<svg enable-background="new 0 0 200 237" height="237" viewBox="0 0 200 237" width="200" xmlns="http://www.w3.org/2000/svg"><path d="m78.59 49.445c2.014-1.237 12.868-7.004 30.379.224 18.012 7.434 29.188.978 30.574.099-4.354-7.159-9.533-13.389-15.259-17.578.381-.104.771-.209 1.183-.332 7.594-2.196 9.522-8.625 9.929-14.131.458-6.245.776-6.341 2.133-11.96 1.302-5.396-.149-6.476-1.488-5.386-.722.586-6.998 2.037-10.721 4.94-6.011 4.69-9.716 13.608-11.396 18.538-.032.076-.258.761-.334.999-.783 1.889-2.342 1.883-2.342 1.883v.001c-.755-.083-1.515-.126-2.279-.126-.682 0-1.359.037-2.037.102-.015.003-.023 0-.039.001-1.993.293-3.09-2.14-3.318-2.72-2.328-6.687-8.593-19.872-22.671-23.419 0 0-2.557-1.959-1.777 1.354.74 3.166 2.273 6.366 1.933 11.02-.156 2.148-1.489 13.164 8.636 18.896.961.544 1.817 1.002 2.585 1.387-5.097 4.082-9.729 9.761-13.691 16.208z"/><path d="m145.06 150.186c-12.406-7.687-16.582-10.39-16.321-13.33 0 0 .003-.478.126-1.207.3-1.56 1.254-4.221 4.294-5.738.101-.049.185-.105.263-.162 9.666-5.61 16.729-14.642 19.22-25.917-2.511 6.228-21.098 11.068-43.675 11.068-22.569 0-41.161-4.84-43.669-11.068.558 2.531 1.353 4.944 2.35 7.238.839 4.722 1.968 15.838-3.37 25.569-4.704 8.571-27.923 20.258-62.382 13.548 0 0-1.383-.964-1.8-.17-.618 1.174 1.912 2.123 4.519 2.811 23.991 6.353 60.202 3.769 71.574-5.601 5.188-4.271 7.19-10.026 7.699-16.22l.004.01s.139-1.622 2.167-.403c.581.35 2.678 1.716 3.013 3.259.292 2.197.312 4.895-.822 6.785-1.622 2.701-1.64 3.09.495 4.616 1.311.936 6.666 4.871 14.116 9.347.02.013.029.023.048.034 1.577.949 3.767 3.274 3.767 3.274 3.354 3.881 10.654 11.691 13.832 10.222 1.501-.694-.064-3.823-.064-3.823s2.496 3.241 3.837 2.137c1.019-.843-.597-4.069-.597-4.069s2.179 1.889 3.475 1.189c1.586-.855-.234-5.817-12.705-13.397-12.475-7.585-15.856-8.748-16.154-12.134 0 0-.005-.171.005-.462.098-.747.522-2.327 2.335-2.158 2.699.437 5.481.67 8.331.67 3.262 0 6.437-.3 9.5-.871l.001.005s.159-.032.206-.04c.358-.045 1.057-.021 1.06.846-.113 1.101-.418 2.207-1.065 3.176-1.825 2.733-1.225 3.107.68 4.864 1.177 1.083 6.569 5.827 13.957 10.417.014.011.021.021.039.03 1.575.947 4.299 3.551 4.299 3.551v-.001c3.061 3.107 8.689 8.314 11.758 8.001 2.073-.213.385-3.785.385-3.785s2.62 2.528 3.905 1.785c1.439-.831-.596-3.473-.596-3.473s1.687.893 2.879.596c1.189-.301 1.485-3.336-10.919-11.019z"/><path d="m131.198 63.329c-1.488 0-2.725.448-3.671 1.333-.957.896-1.441 1.93-1.441 3.073v20.24c0 2.717-.481 4.718-1.431 5.952-.918 1.193-2.384 1.773-4.482 1.773-2.146 0-3.609-.576-4.473-1.759-.903-1.235-1.36-3.241-1.36-5.965v-20.321c0-1.384-.63-2.516-1.825-3.273-1.624-1.023-3.24-1.394-5.206-.74-.6.201-1.164.461-1.679.776-.548.333-1.011.752-1.378 1.241-.406.544-.612 1.136-.612 1.759v20.556c0 2.721-.457 4.728-1.36 5.964-.867 1.185-2.33 1.761-4.473 1.761-2.149 0-3.627-.579-4.518-1.766-.926-1.235-1.396-3.24-1.396-5.958v-20.24c0-1.144-.484-2.178-1.443-3.073-.947-.884-2.208-1.333-3.748-1.333-1.586 0-2.895.444-3.89 1.317-1.021.896-1.54 1.936-1.54 3.089v19.925c0 2.506.245 4.877.726 7.044.494 2.215 1.357 4.16 2.565 5.781 1.22 1.637 2.876 2.929 4.923 3.845 2.026.902 4.56 1.36 7.532 1.36 3.097 0 5.691-.575 7.709-1.706 1.692-.95 3.117-2.199 4.249-3.721 1.092 1.522 2.484 2.771 4.153 3.719 1.991 1.133 4.626 1.708 7.829 1.708 2.973 0 5.495-.459 7.498-1.363 2.018-.915 3.659-2.207 4.881-3.842 1.21-1.626 2.073-3.571 2.564-5.781.481-2.167.726-4.538.726-7.044v-19.926c0-1.148-.503-2.185-1.491-3.082-.971-.878-2.296-1.323-3.938-1.323z"/><path d="m40.224 210.632c-.662 0-1.211.198-1.631.59-.424.399-.64.858-.64 1.366v8.989c0 1.206-.214 2.097-.636 2.644-.406.53-1.059.788-1.99.788-.955 0-1.604-.256-1.987-.783-.401-.546-.604-1.439-.604-2.648v-9.025c0-.615-.28-1.118-.81-1.453-.721-.456-1.439-.621-2.312-.33-.266.092-.518.206-.747.347-.243.147-.449.332-.611.55-.181.241-.272.505-.272.782v9.13c0 1.209-.203 2.1-.604 2.648-.386.527-1.036.783-1.988.783-.954 0-1.61-.258-2.006-.785-.411-.547-.62-1.44-.62-2.646v-8.989c0-.508-.215-.967-.641-1.366-.421-.392-.98-.59-1.665-.59-.704 0-1.287.195-1.728.582-.454.398-.684.86-.684 1.374v8.851c0 1.111.108 2.166.323 3.128.218.983.601 1.849 1.139 2.568.542.728 1.277 1.302 2.188 1.708.9.401 2.024.604 3.345.604 1.375 0 2.528-.256 3.425-.759.751-.422 1.384-.977 1.887-1.652.485.676 1.103 1.23 1.844 1.65.885.505 2.055.761 3.478.761 1.319 0 2.44-.205 3.33-.606.896-.407 1.625-.981 2.168-1.706.538-.723.921-1.588 1.139-2.568.213-.962.322-2.017.322-3.128v-8.851c0-.511-.223-.97-.662-1.368-.433-.395-1.022-.59-1.75-.59z"/><path d="m66.316 212.703c-.624-.648-1.434-1.163-2.406-1.527-.965-.362-2.121-.544-3.433-.544-1.415 0-2.671.25-3.735.744-1.062.495-1.956 1.15-2.656 1.951-.7.793-1.238 1.699-1.598 2.686-.361.989-.544 2-.544 3.011v3.079c0 .915.14 1.818.416 2.684.28.873.707 1.662 1.264 2.343.563.685 1.292 1.247 2.168 1.673.88.429 1.915.646 3.076.646.718 0 1.334-.058 1.833-.164.505-.113.954-.277 1.328-.489.375-.212.7-.462.965-.739.158-.165.312-.343.459-.532v.142c0 .509.216.968.64 1.366.42.393.968.59 1.63.59.729 0 1.318-.197 1.75-.587.439-.399.662-.86.662-1.369v-9.794c0-1.034-.147-1.994-.436-2.863-.293-.884-.758-1.658-1.383-2.307zm-7.354 2.67c.447-.203.956-.306 1.515-.306.969 0 1.719.217 2.231.646.494.412.746 1.162.746 2.228v3.288c0 .628-.108 1.184-.323 1.652-.214.473-.496.869-.835 1.177-.341.307-.736.546-1.174.706-.441.162-.905.244-1.379.244-.857 0-1.554-.27-2.127-.824-.571-.55-.849-1.184-.849-1.941v-3.359c0-.517.092-1.008.274-1.456.183-.453.44-.863.764-1.22.317-.349.707-.633 1.157-.835z"/><path d="m80.556 204.685c-.704 0-1.286.195-1.728.586-.454.397-.684.859-.684 1.37v20.849c0 .511.23.973.684 1.373.442.388 1.024.585 1.728.585.685 0 1.245-.2 1.666-.593.424-.399.642-.857.642-1.365v-20.849c0-.508-.217-.967-.642-1.365-.421-.393-.981-.591-1.666-.591z"/><path d="m95.493 204.685c-.704 0-1.286.195-1.728.586-.453.397-.684.859-.684 1.37v20.849c0 .511.23.973.684 1.373.442.388 1.024.585 1.728.585.685 0 1.246-.2 1.666-.593.425-.399.642-.857.642-1.365v-20.849c0-.508-.217-.967-.642-1.365-.421-.393-.981-.591-1.666-.591z"/><path d="m121.726 212.703c-.624-.648-1.434-1.163-2.405-1.527-.968-.362-2.122-.544-3.435-.544-1.414 0-2.671.25-3.733.744-1.062.495-1.956 1.15-2.658 1.951-.697.793-1.234 1.696-1.597 2.686-.36.989-.544 2-.544 3.011v3.079c0 .912.14 1.816.417 2.684.279.873.703 1.662 1.264 2.343.562.685 1.292 1.247 2.168 1.673.88.429 1.915.646 3.076.646.718 0 1.334-.058 1.833-.164.506-.113.953-.277 1.328-.489.374-.212.697-.462.964-.739.158-.165.312-.343.459-.532v.142c0 .509.216.968.642 1.366.419.393.969.59 1.63.59.729 0 1.317-.197 1.75-.587.438-.399.661-.86.661-1.369v-9.794c0-1.034-.146-1.994-.436-2.863-.294-.881-.759-1.656-1.384-2.307zm-7.355 2.67c.446-.203.956-.306 1.515-.306.969 0 1.719.217 2.23.646.495.412.746 1.162.746 2.228v3.288c0 .625-.108 1.184-.321 1.652-.214.473-.495.869-.835 1.177-.341.307-.735.546-1.174.706-.441.162-.906.244-1.381.244-.856 0-1.552-.27-2.126-.824-.571-.55-.85-1.184-.85-1.941v-3.359c0-.517.093-1.008.276-1.456.18-.453.437-.863.762-1.22.32-.349.71-.633 1.158-.835z"/><path d="m147.924 213.071c-.634-.77-1.449-1.377-2.422-1.803-.973-.422-2.132-.637-3.45-.637-.925 0-1.769.168-2.506.497-.578.261-1.087.612-1.519 1.05v-5.538c0-.508-.216-.967-.642-1.365-.42-.393-.98-.591-1.665-.591-.704 0-1.285.195-1.728.586-.453.397-.685.859-.685 1.37v15.566c0 1.038.18 2.014.53 2.895.354.891.891 1.679 1.6 2.338.705.653 1.594 1.17 2.647 1.536 1.039.356 2.269.541 3.652.541 1.344 0 2.533-.229 3.538-.674 1.003-.45 1.857-1.062 2.536-1.829.681-.764 1.189-1.659 1.516-2.664.324-.995.489-2.068.489-3.191v-2.03c0-1.211-.16-2.344-.47-3.362-.311-1.025-.788-1.931-1.421-2.695zm-6.186 12.006c-1.076 0-1.986-.23-2.7-.685-.681-.433-1.011-1.104-1.011-2.046v-4.011c.043-1.137.376-1.974.988-2.482.629-.522 1.426-.786 2.372-.786 1.112 0 1.982.341 2.661 1.042.673.694 1.017 1.735 1.017 3.09v2.099c0 1.151-.311 2.081-.921 2.766-.606.684-1.394 1.013-2.406 1.013z"/><path d="m172.868 212.703c-.623-.648-1.433-1.163-2.405-1.527-.968-.362-2.121-.544-3.435-.544-1.415 0-2.67.25-3.735.744-1.061.495-1.953 1.15-2.656 1.951-.697.793-1.235 1.696-1.596 2.686-.362.989-.544 2-.544 3.011v3.079c0 .912.141 1.816.415 2.684.28.873.706 1.662 1.264 2.343.562.685 1.293 1.247 2.169 1.673.88.429 1.915.646 3.074.646.721 0 1.335-.058 1.835-.164.506-.113.953-.277 1.329-.489.374-.212.698-.462.962-.739.159-.165.312-.343.459-.532v.142c0 .509.217.968.642 1.366.421.393.968.59 1.63.59.73 0 1.318-.197 1.75-.587.439-.399.661-.86.661-1.369v-9.794c0-1.034-.146-1.994-.434-2.863-.294-.881-.758-1.656-1.385-2.307zm-7.355 2.67c.447-.203.959-.306 1.516-.306.97 0 1.72.217 2.23.646.495.412.745 1.162.745 2.228v3.288c0 .625-.108 1.184-.321 1.652-.215.473-.494.869-.836 1.177-.34.307-.736.546-1.172.706-.442.162-.907.244-1.38.244-.856 0-1.552-.27-2.128-.824-.572-.55-.85-1.184-.85-1.941v-3.359c0-.517.094-1.008.274-1.456.185-.453.44-.863.764-1.22.32-.349.709-.633 1.158-.835z"/><path d="m199.508 214.828c-.294-.856-.762-1.609-1.388-2.234-.623-.624-1.431-1.119-2.406-1.473-.964-.35-2.118-.524-3.429-.524-1.414 0-2.666.25-3.719.747-1.052.494-1.938 1.155-2.64 1.966-.7.809-1.233 1.758-1.582 2.819-.347 1.052-.521 2.155-.521 3.279v2.065c0 2.445.626 4.4 1.859 5.82 1.247 1.429 3.032 2.153 5.307 2.153 1.214 0 2.214-.214 2.97-.637.514-.286.95-.635 1.302-1.041v1.014c0 .774-.088 1.402-.261 1.867-.168.451-.399.811-.685 1.065-.285.256-.629.432-1.019.525-.418.099-.887.148-1.396.148-.841 0-1.497-.047-1.953-.135-.5-.1-.882-.146-1.162-.146-.733 0-1.294.185-1.667.541-.377.363-.569.852-.569 1.45 0 .811.438 1.5 1.354 2.076.33.127.844.234 1.577.332.711.095 1.527.144 2.42.144 1.052 0 2.074-.159 3.032-.47.967-.315 1.835-.799 2.577-1.445.741-.645 1.34-1.469 1.776-2.449.435-.98.656-2.159.656-3.505v-11.229c.002-.962-.145-1.876-.433-2.723zm-8.728.539c.442-.222.95-.333 1.505-.333.973 0 1.726.201 2.239.6.494.385.736.967.736 1.78v4.361c-.044 1.129-.377 1.929-1.02 2.445-.662.53-1.429.788-2.34.788-2.238 0-3.327-1.113-3.327-3.398v-2.343c0-.59.094-1.147.278-1.658.184-.512.441-.959.767-1.339.322-.373.712-.677 1.162-.903z"/></svg>