<svg height="16" viewBox="0 0 16 16" width="16" xmlns="http://www.w3.org/2000/svg"><path d="m1 15 .984-3.595a6.923 6.923 0 0 1 -.926-3.469c.002-3.824 3.114-6.936 6.938-6.936 1.855 0 3.597.723 4.907 2.035a6.897 6.897 0 0 1 2.03 4.908c-.001 3.825-3.113 6.937-6.937 6.937a6.942 6.942 0 0 1 -3.318-.845zm3.848-2.22c.978.58 1.911.927 3.146.928a5.777 5.777 0 0 0 5.768-5.766 5.764 5.764 0 0 0 -5.764-5.77 5.775 5.775 0 0 0 -5.768 5.764c0 1.298.38 2.27 1.018 3.286l-.583 2.128 2.183-.572zm5.125-3.955c-.158-.057-.274-.086-.39.087-.115.174-.448.564-.549.68-.1.115-.202.13-.375.043-.174-.087-.733-.27-1.395-.86a5.218 5.218 0 0 1 -.964-1.201c-.1-.174-.01-.268.076-.354.078-.077.377-.476.435-.593.058-.115.03-.217-.014-.303-.044-.087-.39-.94-.535-1.287-.14-.338-.284-.293-.39-.298-.424.025-.689.095-.795.211-.158.174-.606.593-.606 1.446 0 .854.621 1.678.707 1.794.087.115 1.223 1.866 2.961 2.617.414.178.737.285.989.365.415.132.793.113 1.092.069.333-.05 1.025-.42 1.17-.824.144-.406.144-.753.1-.825-.043-.072-1.357-.709-1.517-.767z"/></svg>