<svg aria-hidden="true" role="img" class="icon" xmlns="http://www.w3.org/2000/svg" width="16" height="16" viewBox="0 0 16 16"><path fill="#111" fill-rule="evenodd" d="M14.142 4.641c.032.223.049.462.049.721 0 .709-.133 1.508-.534 2.507l-2.136 6.18A6.992 6.992 0 0015 8a6.966 6.966 0 00-.858-3.359s.547.998 0 0zM8.123 8.613l-2.1 6.102a6.991 6.991 0 004.302-.113.583.583 0 01-.05-.096L8.123 8.613zm4.603-.966c0-.866-.311-1.465-.577-1.931-.355-.577-.688-1.064-.688-1.642 0-.643.488-1.241 1.177-1.241.03 0 .059.003.09.005A6.975 6.975 0 008 1a6.992 6.992 0 00-5.85 3.155c.166.005.32.01.45.01.733 0 1.867-.091 1.867-.091.376-.021.421.532.044.578 0 0-.38.044-.801.067l2.55 7.58 1.532-4.594L6.7 4.719c-.377-.023-.733-.067-.733-.067-.378-.023-.334-.599.044-.578 0 0 1.156.09 1.844.09.73 0 1.866-.09 1.866-.09.376-.021.42.532.044.578 0 0-.379.044-.801.067l2.53 7.522.699-2.331c.354-.91.532-1.664.532-2.263 0 0 0 .6 0 0zM1 8c0 2.77 1.61 5.165 3.945 6.298L1.607 5.151A6.964 6.964 0 001 8z"/></svg>