<svg xmlns="http://www.w3.org/2000/svg" width="32" height="32" viewBox="0 0 32 32">
  <path fill="#000000" fill-rule="evenodd" d="M6.98509091 7.77272727L12.1530909 7.77272727 12.941313 26.0988911C13.0214174 27.9613179 11.5765596 29.5360506 9.71413272 29.616155 9.66581337 29.6182332 9.61745493 29.6192727 9.56909091 29.6192727 7.70494219 29.6192727 6.19375107 28.1080816 6.19375107 26.2439329 6.19375107 26.1955689 6.19479056 26.1472104 6.19686881 26.0988911L6.98509091 7.77272727 6.98509091 7.77272727zM11.9872647 0L14.6887192 1.87927273 15.5101411 1.87902595C15.9485897.827901226 16.9576636.074291343 18.1503751.00518405325L18.3298101 0 18.3298101 1.87927273 18.3298101 4.46327273 18.3298101 6.34254545C17.0595735 6.34254545 15.970473 5.56700964 15.5101775 4.46360698L14.6887192 4.46327273 11.9872647 6.34254545 7.05417376 6.34254545C5.77416893 6.08958034 4.52132045 6.12873185 3.2956283 6.46 2.61786596 6.64317901 1.95574264 6.90463604 1.30925834 7.24437108.872405943 7.47396716.332150252 7.30592845.102573799 6.86906573.017644671 6.70745347-.0157438815 6.52370474.00690102935 6.34254545L.24181012 4.46327273C1.73637487 2.62689752 2.91092032 1.45235206 3.76544648.939636364 4.61997265.426920665 5.71621507.113708544 7.05417376 0L11.9872647 0z" transform="rotate(45 9.586 22.236)"/>
</svg>
